# xmcd
#
# Track frame offsets: 
#        150
#        13757
#        25215
#        41628
#        55884
#        70441
#        84820
#        99622
#        115645
#        129903
#        141381
#        155652
#        169161
#        183060
#        196026
#        211046
#        225737
#        241141
#        255883
#        270123
#
# Disc length: 3820 seconds
#
# Revision: 0
# Processed by: cddbd v1.5.2PL0 Copyright (c) Steve Scherf et al.
# Submitted via: ExactAudioCopyFreeDBPlugin 1.0
#
DISCID=f90eea14
DTITLE=Frank Sinatra - All The Things You Are - CD3
DYEAR=2009
DGENRE=Blues
TTITLE0=All The Things You Are
TTITLE1=As Time Goes By
TTITLE2=Bewitched, Brothered and Bewildered
TTITLE3=Day by Day
TTITLE4=A Lovely Way To Spend An Evening
TTITLE5=I Only Have Eyes For You
TTITLE6=Embraceable You
TTITLE7=Hello Young Lovers
TTITLE8=But None Like You
TTITLE9=That Old Black Magic
TTITLE10=Sweet Lorraine
TTITLE11=In The Wee Small Hours Of The Morning
TTITLE12=They Say It´s Wonderful
TTITLE13=Witchcraft
TTITLE14=Stella By Starlight
TTITLE15=Sundy, Monday Or Always
TTITLE16=No One Evr Tells You
TTITLE17=That Lucky Old Sun
TTITLE18=Like Someone In Love
TTITLE19=I´ve Had My Moments
EXTD=
EXTT0=
EXTT1=
EXTT2=
EXTT3=
EXTT4=
EXTT5=
EXTT6=
EXTT7=
EXTT8=
EXTT9=
EXTT10=
EXTT11=
EXTT12=
EXTT13=
EXTT14=
EXTT15=
EXTT16=
EXTT17=
EXTT18=
EXTT19=
PLAYORDER=
